<?xml version="1.0" encoding="utf-8"?>
<!-- Generator: Adobe Illustrator 24.3.0, SVG Export Plug-In . SVG Version: 6.00 Build 0)  -->
<svg version="1.1" id="Layer_1" xmlns="http://www.w3.org/2000/svg" xmlns:xlink="http://www.w3.org/1999/xlink" x="0px" y="0px"
	 viewBox="0 0 595.28 841.89" style="enable-background:new 0 0 595.28 841.89;" xml:space="preserve">
<style type="text/css">
	.st0{fill:#F2F2F2;stroke:#1B78BD;stroke-width:10;stroke-miterlimit:10;}
	.st1{fill:#251F20;}
	.st2{fill:#E94654;}
</style>
<path class="st0" d="M451.8,597.51H143.48c-6.6,0-12-5.4-12-12V256.38c0-6.6,5.4-12,12-12H451.8c6.6,0,12,5.4,12,12v329.12
	C463.8,592.11,458.4,597.51,451.8,597.51z"/>
<g>
	<path class="st1" d="M198.01,555.94c-11.82-0.31-24.23-0.13-36.52-2.05c-2.61-0.41-5.13-1.09-7.46-2.38
		c-3.06-1.69-3.76-4.47-1.93-7.47c1.83-2.99,4.64-4.9,7.41-6.84c9.13-6.39,19.01-11.51,28.82-16.76
		c15.22-8.14,30.56-16.03,45.56-24.6c10.49-5.99,21.45-11.07,32.41-16.15c10.82-5.02,21.62-10.06,32.42-15.13
		c8.43-3.96,16.96-7.74,25.07-12.35c5.93-3.36,10.67-8.1,14.75-13.46c2.65-3.47,2.73-5.51-1.52-8.94c-5-4.04-10.97-6.29-16.89-8.57
		c-12.73-4.91-25.93-8.25-39.13-11.6c-13.76-3.49-27.13-8.04-39.53-15.08c-9.04-5.13-17.08-11.5-23.05-20.1
		c-6.4-9.21-8.81-19.28-5.17-30.25c2.11-6.36,6-11.59,10.88-16.09c8.33-7.68,18.32-12.83,28.15-18.16
		c14.18-7.69,28.97-14,44.41-18.73c10.68-3.27,21.5-5.64,32.79-4.4c3.85,0.42,7.72,0.82,11.28,2.55c3.18,1.55,3.67,3.9,1.41,6.69
		c-2.67,3.3-6.28,5.45-9.94,7.35c-12.01,6.23-24.21,12.12-35.66,19.35c-7.61,4.81-15.17,9.82-20.5,17.31
		c-4.39,6.17-3.16,11.05,3.57,14.93c7.61,4.39,16.2,5.84,24.64,7.62c21.65,4.59,43.3,9.14,64.54,15.43
		c13.79,4.08,27.37,8.74,40.14,15.45c8.66,4.55,16.77,9.88,22.9,17.72c8.3,10.61,9.36,22.07,3.85,34.26
		c-3.28,7.24-8.37,13.26-13.15,19.46c-5.14,6.67-10.38,13.28-15.89,19.65c-7.51,8.69-15.02,17.39-22.96,25.71
		c-11.54,12.1-23.53,23.67-37.47,33.05c-7.96,5.35-16.55,7.98-26.24,8.2c-16.46,0.37-32.91,1.5-49.36,2.24
		c-8.78,0.4-17.58,0.64-26.36,0.98C229.04,555.4,213.81,555.71,198.01,555.94z M322.81,290.18c-4.78,0.02-8.88,0.58-12.89,1.44
		c-8.47,1.82-16.72,4.41-24.76,7.67c-10.98,4.45-21.4,10.02-31.27,16.54c-8.49,5.6-17.12,11.1-23.94,18.82
		c-5.29,5.99-8.64,12.77-7.37,21.11c1.08,7.09,5.05,12.56,9.98,17.4c7.94,7.8,17.43,13.37,27.31,18.27
		c7.14,3.54,14.42,6.78,21.95,9.44c5.69,2.01,11.29,4.25,16.97,6.3c8.34,3,16.68,6.02,24.88,9.39c5.74,2.35,11.5,4.75,16.48,8.52
		c6,4.54,8.31,10.19,3.09,17.41c-2.07,2.87-4.56,5.32-6.81,8c-4.82,5.75-11.52,8.89-17.77,12.6c-10.14,6.02-20.68,11.33-31.2,16.66
		c-17.33,8.77-34.55,17.79-52.57,25.16c-8.19,3.35-16.22,7.11-24.21,10.92c-15.01,7.16-29.7,14.91-43.7,23.93
		c-2.65,1.71-5.34,3.38-7.64,5.57c-0.34,0.33-0.88,0.58-0.73,1.14c0.15,0.55,0.75,0.56,1.19,0.66c1.41,0.32,2.83,0.67,4.26,0.89
		c6.86,1.06,13.8,1.27,20.7,1.5c18.64,0.63,37.3,0.41,55.95,0c2-0.04,4.28,0.58,6.06-0.77c3.45-2.61,7.18-4.79,10.88-6.99
		c14.68-8.7,29.5-17.18,44.39-25.52c2.49-1.4,4.45-0.64,5.56,1.14c0.98,1.57,0.27,3.56-1.75,4.84c-3.01,1.91-6.05,3.79-9.12,5.6
		c-9.71,5.72-19.47,11.35-29.13,17.14c-1.76,1.05-3.79,1.8-5.53,3.65c7.17-0.42,13.94-0.82,20.71-1.22
		c12.31-0.73,24.61-1.52,36.92-2.19c6.05-0.33,11.86-1.17,17.28-4.27c10.44-5.96,19.19-13.98,27.73-22.27
		c8.01-7.78,15.55-16.02,22.8-24.51c4.95-5.8,9.84-11.66,14.6-17.62c5.74-7.19,11.33-14.5,16.94-21.79
		c4.02-5.22,7.97-10.46,10.08-16.87c2.08-6.32,1.45-12.33-1.75-18c-3.73-6.63-9.46-11.39-15.66-15.54
		c-7.04-4.71-14.67-8.35-22.44-11.68c-7.52-3.22-15.2-6.06-22.96-8.62c-8.11-2.68-16.3-5.14-24.57-7.31
		c-7.07-1.85-14.17-3.55-21.25-5.38c-4.8-1.24-9.62-2.37-14.46-3.45c-5.38-1.21-10.74-2.55-16.05-4.04
		c-5.52-1.55-10.87-3.56-15.39-7.29c-2.49-2.06-4.45-4.47-4.95-7.8c-0.88-5.78,2.03-10.07,5.62-14.03
		c8.5-9.38,19.31-15.57,30.19-21.6c8.72-4.83,17.72-9.13,26.67-13.51c2.7-1.32,5.49-2.59,7.67-4.78c1.63-1.64,1.33-2.61-0.79-3.41
		c-2.92-1.11-6.01-0.81-9-1.26c-0.4-0.06-0.85-0.14-1.17,0.23c-1.15,1.34-2.77,1.99-4.2,2.93c-3.11,2.03-6.26,4.01-9.38,6.01
		c-0.99,0.63-1.78,0.51-2.53-0.42c-0.79-0.97-0.24-1.68,0.38-2.35c0.37-0.39,0.87-0.67,1.33-0.97
		C317.05,293.89,319.68,292.2,322.81,290.18z"/>
	<path class="st2" d="M322.81,290.18c-3.13,2.02-5.76,3.71-8.38,5.41c-0.46,0.3-0.96,0.58-1.33,0.97c-0.62,0.67-1.17,1.38-0.38,2.35
		c0.75,0.93,1.54,1.06,2.53,0.42c3.13-2.01,6.27-3.98,9.38-6.01c1.43-0.93,3.05-1.59,4.2-2.93c0.31-0.36,0.77-0.29,1.17-0.23
		c3,0.44,6.08,0.14,9,1.26c2.11,0.81,2.41,1.77,0.79,3.41c-2.17,2.19-4.97,3.46-7.67,4.78c-8.95,4.38-17.95,8.68-26.67,13.51
		c-10.88,6.03-21.69,12.22-30.19,21.6c-3.59,3.96-6.49,8.26-5.62,14.03c0.5,3.33,2.46,5.74,4.95,7.8c4.51,3.72,9.86,5.74,15.39,7.29
		c5.31,1.49,10.67,2.83,16.05,4.04c4.84,1.08,9.66,2.21,14.46,3.45c7.07,1.83,14.18,3.53,21.25,5.38
		c8.27,2.16,16.46,4.63,24.57,7.31c7.77,2.57,15.44,5.4,22.96,8.62c7.77,3.33,15.4,6.97,22.44,11.68
		c6.21,4.15,11.93,8.91,15.66,15.54c3.2,5.68,3.82,11.68,1.75,18c-2.11,6.41-6.06,11.65-10.08,16.87
		c-5.61,7.29-11.2,14.6-16.94,21.79c-4.76,5.96-9.65,11.82-14.6,17.62c-7.25,8.5-14.79,16.73-22.8,24.51
		c-8.53,8.29-17.29,16.31-27.73,22.27c-5.42,3.09-11.23,3.94-17.28,4.27c-12.31,0.67-24.62,1.46-36.92,2.19
		c-6.77,0.4-13.54,0.8-20.71,1.22c1.75-1.85,3.77-2.6,5.53-3.65c9.66-5.79,19.42-11.42,29.13-17.14c3.07-1.81,6.11-3.69,9.12-5.6
		c2.02-1.28,2.73-3.27,1.75-4.84c-1.11-1.79-3.06-2.54-5.56-1.14c-14.89,8.34-29.71,16.81-44.39,25.52
		c-3.7,2.19-7.43,4.38-10.88,6.99c-1.78,1.35-4.06,0.72-6.06,0.77c-18.65,0.42-37.31,0.64-55.95,0c-6.9-0.23-13.85-0.44-20.7-1.5
		c-1.43-0.22-2.85-0.57-4.26-0.89c-0.45-0.1-1.05-0.11-1.19-0.66c-0.15-0.56,0.38-0.82,0.73-1.14c2.31-2.19,5-3.86,7.64-5.57
		c13.99-9.02,28.69-16.78,43.7-23.93c7.99-3.81,16.02-7.57,24.21-10.92c18.02-7.37,35.23-16.38,52.57-25.16
		c10.52-5.32,21.05-10.64,31.2-16.66c6.25-3.71,12.95-6.86,17.77-12.6c2.25-2.68,4.74-5.13,6.81-8c5.22-7.22,2.91-12.87-3.09-17.41
		c-4.98-3.77-10.74-6.16-16.48-8.52c-8.2-3.37-16.54-6.39-24.88-9.39c-5.68-2.04-11.28-4.29-16.97-6.3
		c-7.53-2.66-14.81-5.9-21.95-9.44c-9.89-4.9-19.37-10.47-27.31-18.27c-4.93-4.84-8.9-10.31-9.98-17.4
		c-1.27-8.33,2.08-15.12,7.37-21.11c6.82-7.72,15.45-13.22,23.94-18.82c9.88-6.52,20.29-12.09,31.27-16.54
		c8.04-3.26,16.29-5.85,24.76-7.67C313.93,290.75,318.03,290.19,322.81,290.18z M340.42,490.9c-0.03,1.44,0.6,2.41,1.82,3.21
		c1.55,1.03,2.84,0.42,3.99-0.45c4.2-3.2,8.4-6.39,12.45-9.77c5.82-4.85,11.54-9.84,16.27-15.81c1.34-1.69,2.76-3.44,3.06-5.71
		c0.2-1.48-0.14-2.86-1.73-3.34c-1.46-0.44-2.9-0.32-3.75,1.3c-0.45,0.85-0.91,1.7-1.47,2.48c-3.81,5.3-8.89,9.32-13.8,13.5
		c-4.76,4.05-9.83,7.71-14.86,11.42C341.35,488.51,340.3,489.35,340.42,490.9z M389.56,432.78c-0.46-5.59-2.6-10.47-6.23-14.73
		c-4.95-5.79-11.34-9.48-18.22-12.42c-2.59-1.1-5.2-2.17-7.98-2.73c-1.57-0.31-2.76,0.19-3.26,1.75c-0.5,1.53,0.33,2.51,1.6,3.2
		c0.61,0.33,1.22,0.66,1.86,0.89c5.79,2.09,11.19,4.97,15.99,8.8c4.27,3.4,7.87,7.35,9.02,13.06c0.39,1.9,0.46,3.82,0.87,5.71
		c0.27,1.27,0.71,2.27,2.02,2.56c1.37,0.3,2.38-0.29,3.05-1.55C389.05,435.9,389.63,434.45,389.56,432.78z M295.35,383.41
		c-1.17,0.09-2.27,0.53-2.67,1.82c-0.41,1.31-0.05,2.51,1.21,3.2c0.89,0.49,1.77,1,2.75,1.36c4.28,1.57,8.69,2.68,13.07,3.86
		c4.92,1.33,9.93,2.37,14.9,3.49c1.62,0.37,2.76-0.41,3.22-1.91c0.49-1.57-0.27-2.7-1.8-3.2c-1.64-0.53-3.3-0.99-4.97-1.4
		c-6.76-1.65-13.48-3.45-20.09-5.62C299.16,384.43,297.39,383.6,295.35,383.41z M241.28,351.72c0.95-0.05,1.74-0.44,2.24-1.25
		c0.47-0.75,0.82-1.58,1.27-2.35c2.24-3.85,4.29-7.85,7.71-10.86c1.81-1.59,2.17-3.19,0.85-4.53c-1.25-1.27-2.93-1.08-4.45,0.67
		c-3.79,4.35-6.9,9.2-9.9,14.12C237.84,349.44,239.19,351.73,241.28,351.72z M267.25,382.22c1.83,0.12,2.89-0.54,3.23-2.01
		c0.33-1.45-0.2-2.65-1.65-3.18c-1.29-0.47-2.67-0.69-3.97-1.13c-3.55-1.18-6.58-3.28-9.48-5.59c-1.32-1.05-2.48-0.64-3.45,0.46
		c-0.92,1.05-0.97,2.3,0.02,3.32C256.23,378.54,261.63,380.9,267.25,382.22z M292.87,309.23c0.1-1.92-1.91-3.02-3.91-1.88
		c-5.41,3.09-10.76,6.3-16.09,9.55c-1.14,0.7-2.01,1.68-0.97,3.24c0.94,1.42,2.03,1.5,3.35,0.72c5.36-3.17,10.71-6.35,16.07-9.53
		C292.14,310.85,292.65,310.15,292.87,309.23z"/>
	<path class="st1" d="M340.42,490.9c-0.11-1.55,0.93-2.39,1.99-3.17c5.02-3.72,10.09-7.37,14.86-11.42c4.91-4.18,9.98-8.2,13.8-13.5
		c0.56-0.78,1.03-1.63,1.47-2.48c0.85-1.63,2.28-1.74,3.75-1.3c1.59,0.48,1.93,1.86,1.73,3.34c-0.3,2.27-1.72,4.02-3.06,5.71
		c-4.73,5.97-10.45,10.96-16.27,15.81c-4.05,3.38-8.26,6.57-12.45,9.77c-1.15,0.88-2.44,1.48-3.99,0.45
		C341.02,493.3,340.39,492.33,340.42,490.9z"/>
	<path class="st1" d="M389.56,432.78c0.06,1.66-0.51,3.12-1.27,4.54c-0.67,1.26-1.68,1.85-3.05,1.55c-1.31-0.29-1.75-1.29-2.02-2.56
		c-0.41-1.89-0.48-3.81-0.87-5.71c-1.16-5.71-4.75-9.66-9.02-13.06c-4.8-3.83-10.2-6.71-15.99-8.8c-0.64-0.23-1.26-0.56-1.86-0.89
		c-1.27-0.69-2.1-1.67-1.6-3.2c0.51-1.56,1.69-2.06,3.26-1.75c2.78,0.55,5.39,1.62,7.98,2.73c6.88,2.94,13.27,6.62,18.22,12.42
		C386.97,422.31,389.1,427.2,389.56,432.78z"/>
	<path class="st1" d="M295.35,383.41c2.04,0.18,3.81,1.01,5.63,1.61c6.62,2.16,13.33,3.97,20.09,5.62c1.67,0.41,3.33,0.87,4.97,1.4
		c1.53,0.5,2.28,1.63,1.8,3.2c-0.46,1.49-1.6,2.27-3.22,1.91c-4.98-1.13-9.98-2.16-14.9-3.49c-4.38-1.18-8.8-2.29-13.07-3.86
		c-0.98-0.36-1.86-0.87-2.75-1.36c-1.26-0.69-1.62-1.89-1.21-3.2C293.08,383.95,294.18,383.51,295.35,383.41z"/>
	<path class="st1" d="M241.28,351.72c-2.09,0.01-3.43-2.28-2.27-4.2c2.99-4.91,6.1-9.76,9.9-14.12c1.52-1.74,3.19-1.93,4.45-0.67
		c1.32,1.34,0.96,2.94-0.85,4.53c-3.42,3-5.47,7-7.71,10.86c-0.45,0.77-0.8,1.6-1.27,2.35
		C243.02,351.28,242.23,351.67,241.28,351.72z"/>
	<path class="st1" d="M267.25,382.22c-5.62-1.32-11.02-3.68-15.31-8.13c-0.98-1.02-0.94-2.26-0.02-3.32
		c0.97-1.1,2.14-1.51,3.45-0.46c2.9,2.31,5.93,4.41,9.48,5.59c1.31,0.43,2.68,0.66,3.97,1.13c1.45,0.53,1.98,1.73,1.65,3.18
		C270.14,381.68,269.08,382.34,267.25,382.22z"/>
	<path class="st1" d="M292.87,309.23c-0.22,0.92-0.73,1.62-1.55,2.1c-5.36,3.17-10.71,6.36-16.07,9.53
		c-1.31,0.78-2.41,0.7-3.35-0.72c-1.03-1.57-0.17-2.54,0.97-3.24c5.32-3.24,10.67-6.45,16.09-9.55
		C290.95,306.21,292.97,307.31,292.87,309.23z"/>
</g>
</svg>
